<svg width="1116" height="1562" viewBox="0 0 1116 1562" fill="none" xmlns="http://www.w3.org/2000/svg">
<path fill-rule="evenodd" clip-rule="evenodd" d="M1070 526V1209.5V1221H1069.82C1063.75 1410.36 908.332 1562 717.5 1562H396.5C205.668 1562 50.2533 1410.36 44.184 1221H44V1209.5V526V521.5V516H44.0578C44.0954 514.214 44.1512 512.433 44.2251 510.656C52.3393 234.432 278.811 13 557 13C828.314 13 1050.43 223.621 1068.78 490.278C1069.59 498.576 1070 506.989 1070 515.5C1070 515.667 1070 515.833 1070 516V526Z" fill="white"/>
<path fill-rule="evenodd" clip-rule="evenodd" d="M209.982 1508.67C113.347 1448.29 48.075 1342.4 44.184 1221H44V1209.5V836.776C155.639 850.792 242 946.061 242 1061.5V1392.5C242 1434.97 230.314 1474.7 209.982 1508.67Z" fill="#3BB4C1"/>
<path fill-rule="evenodd" clip-rule="evenodd" d="M1070 836.419V1209.5V1221H1069.82C1065.9 1343.31 999.668 1449.88 901.835 1510.02C880.999 1475.76 869 1435.53 869 1392.5V1061.5C869 945.028 956.912 849.09 1070 836.419Z" fill="#3BB4C1"/>
<path fill-rule="evenodd" clip-rule="evenodd" d="M1070 515.5C1070 515.667 1070 515.833 1070 516V791C930.824 791 818 903.824 818 1043V1411C818 1456.42 830.014 1499.03 851.039 1535.83C809.852 1552.7 764.762 1562 717.5 1562H396.5C350.476 1562 306.513 1553.18 266.207 1537.14C287.698 1500.04 300 1456.96 300 1411V1043C300 903.824 187.176 791 48 791C46.6642 791 45.3309 791.01 44 791.031V521.5V516H44.0578C46.9844 376.878 160.677 265 300.5 265C440.323 265 554.016 376.878 556.942 516H557C557 515.833 557 515.667 557 515.5C557 373.839 671.839 259 813.5 259C955.161 259 1070 373.839 1070 515.5Z" fill="#048998"/>
<path fill-rule="evenodd" clip-rule="evenodd" d="M299.5 219C217.432 219 143.508 253.872 91.738 309.607C173.354 134.424 350.997 13 557 13C765.65 13 945.207 137.565 1025.36 316.386C973.387 256.714 896.848 219 811.5 219C698.588 219 601.094 285.009 555.5 380.542C509.906 285.009 412.412 219 299.5 219Z" fill="#3BB4C1"/>
<circle cx="300" cy="503" r="136" fill="#F6F5F5"/>
<path d="M948 503C948 578.111 887.111 639 812 639C736.889 639 676 578.111 676 503C676 427.889 736.889 367 812 367C887.111 367 948 427.889 948 503Z" fill="#F6F5F5"/>
<path d="M557 639L614.158 692H499.842L557 639Z" fill="#E9E4E6"/>
<path d="M557 791L614.158 692H499.842L557 791Z" fill="#E9E4E6"/>
<path fill-rule="evenodd" clip-rule="evenodd" d="M392 503C392 452.19 350.81 411 300 411C249.19 411 208 452.19 208 503H228C228 463.235 260.235 431 300 431C339.764 431 372 463.235 372 503H392Z" fill="#048998"/>
<path fill-rule="evenodd" clip-rule="evenodd" d="M904 503C904 452.19 862.81 411 812 411C761.19 411 720 452.19 720 503H740C740 463.235 772.235 431 812 431C851.764 431 884 463.235 884 503H904Z" fill="#048998"/>
<path d="M0 0C124 112 312 80 312 80L92 308L0 0Z" fill="#3BB4C1"/>
<path d="M1116 5C992 117 804 85 804 85L1024 313L1116 5Z" fill="#3BB4C1"/>
</svg>
